<svg xmlns="http://www.w3.org/2000/svg" version="1.1" xmlns:xlink="http://www.w3.org/1999/xlink" xmlns:svgjs="http://svgjs.dev/svgjs" width="2000" height="1252" viewBox="0 0 2000 1252"><g transform="matrix(1,0,0,1,-1.2121212121212466,189.8283003880523)"><svg viewBox="0 0 396 248" data-background-color="#ffffff" preserveAspectRatio="xMidYMid meet" height="1252" width="2000" xmlns="http://www.w3.org/2000/svg" xmlns:xlink="http://www.w3.org/1999/xlink"><g id="tight-bounds" transform="matrix(1,0,0,1,0.2400000000000091,0.4000000000000057)"><svg viewBox="0 0 395.52 247.2" height="247.2" width="395.52"><g><svg></svg></g><g><svg viewBox="0 0 395.52 247.2" height="247.2" width="395.52"><g transform="matrix(1,0,0,1,75.54432000000001,80.454739908358)"><svg viewBox="0 0 244.43135999999996 86.29052018328402" height="86.29052018328402" width="244.43135999999996"><g><svg viewBox="0 0 245.65351679999995 86.72197278420043" height="86.29052018328402" width="244.43135999999996"><g><rect width="245.65351679999995" height="2.656179487088371" x="0" y="47.65858389988266" fill="#000000" opacity="1" stroke-width="0" stroke="transparent" fill-opacity="1" class="rect-yte-0" data-fill-palette-color="secondary" rx="1%" id="yte-0" data-palette-color="#556970"></rect></g><g transform="matrix(1,0,0,1,0.6110783999999825,57.26811282961074)"><svg viewBox="0 0 244.43135999999998 29.45385995458968" height="29.45385995458968" width="244.43135999999998"><g id="textblocktransform"><svg viewBox="0 0 244.43135999999998 29.45385995458968" height="29.45385995458968" width="244.43135999999998" id="textblock"><g><svg viewBox="0 0 244.43135999999998 29.45385995458968" height="29.45385995458968" width="244.43135999999998"><g transform="matrix(1,0,0,1,0,0)"><svg width="244.43135999999998" viewBox="4.45 -36.5 308.27000000000004 37.15" height="29.45385995458968" data-palette-color="#556970"><path d="M37.75-5.7Q37.75-2.1 38.35-0.35L38.35-0.35Q37.3 0.55 36 0.55L36 0.55Q35.05 0.55 34.45-0.05 33.85-0.65 33.85-1.65L33.85-1.65 33.75-29.8 22.8-5.45Q21.6-5 20.6-5L20.6-5Q19.7-5 19-5.35L19-5.35Q13.35-16.05 7.2-29.65L7.2-29.65 7.25-5.7Q7.25-1.95 7.9-0.05L7.9-0.05Q7.2 0.55 6.25 0.55L6.25 0.55Q4.8 0.55 4.8-1.3L4.8-1.3 4.75-28.95Q4.75-32.5 4.45-34.5L4.45-34.5Q5.05-35.1 7.1-35.1L7.1-35.1Q8.45-35.1 9.2-34.3L9.2-34.3 13.35-25.55 21.4-8.85Q22.4-11.05 28.35-24.6L28.35-24.6Q29.85-28.15 30.95-30.65 32.05-33.15 32.75-34.7L32.75-34.7Q33.8-35.1 35.2-35.1L35.2-35.1Q36.15-35.1 36.88-34.75 37.6-34.4 37.65-33.9L37.65-33.9 37.75-5.7ZM68.95-3.65Q69.5-2.9 69.5-2.1L69.5-2.1Q69.5-1 68.47-0.25 67.45 0.5 66 0.5L66 0.5Q63.85 0.5 62.75-1 61.65-2.5 61.65-5.7L61.65-5.7 61.65-7.15Q60-3.6 57.17-1.53 54.35 0.55 51 0.55L51 0.55Q48.1 0.55 46.42-1.03 44.75-2.6 44.75-5.25L44.75-5.25Q44.75-8.2 47-10.25 49.25-12.3 53.05-13.35L53.05-13.35Q56.4-14.25 60-14.25L60-14.25Q61-14.25 61.45-14.2L61.45-14.2 61.45-15.5Q61.45-19.95 59.97-22.1 58.5-24.25 55.1-24.25L55.1-24.25Q52.9-24.25 51.4-23.3 49.9-22.35 49.9-20.2L49.9-20.2Q49.9-19.05 50.42-18.05 50.95-17.05 52.05-16.65L52.05-16.65Q51.25-15.65 49.65-15.65L49.65-15.65Q48-15.65 46.95-16.98 45.9-18.3 45.9-20.05L45.9-20.05Q45.9-22.95 48.45-24.5 51-26.05 55.45-26.05L55.45-26.05Q60.6-26.05 63.05-23.4 65.5-20.75 65.5-15.25L65.5-15.25 65.5-5.25Q65.5-2.6 67.3-2.6L67.3-2.6Q67.7-2.6 68.2-2.88 68.7-3.15 68.95-3.65L68.95-3.65ZM52.6-2.25Q54.6-2.25 56.67-3.73 58.75-5.2 60.12-7.6 61.5-10 61.55-12.6L61.55-12.6 60.4-12.65Q58.65-12.65 56.85-12.38 55.05-12.1 53.8-11.6L53.8-11.6Q51.6-10.8 50.35-9.4 49.1-8 49.1-6.1L49.1-6.1Q49.1-4.45 49.95-3.35 50.8-2.25 52.6-2.25L52.6-2.25ZM84.8-26.05Q87.4-26.05 88.97-24.68 90.55-23.3 90.55-20.85L90.55-20.85Q90.55-19.2 89.59-18.13 88.65-17.05 87.34-17.05L87.34-17.05Q86.25-17.05 85.84-17.55L85.84-17.55Q86.4-18.4 86.59-19.13 86.8-19.85 86.8-20.75L86.8-20.75Q86.8-23.85 83.9-23.85L83.9-23.85Q81.65-23.85 80.12-20.98 78.59-18.1 78.59-12.05L78.59-12.05 78.59-9.35Q78.59-4.85 78.7-3.25 78.8-1.65 79.25-0.45L79.25-0.45Q78.2 0.45 76.9 0.45L76.9 0.45Q75.9 0.45 75.25-0.18 74.59-0.8 74.59-1.9L74.59-1.9 74.59-20.3Q74.59-21.7 74.27-22.3 73.95-22.9 73.2-22.9L73.2-22.9Q72.25-22.9 71.9-22.1L71.9-22.1Q71.3-22.95 71.3-23.7L71.3-23.7Q71.3-24.75 72.09-25.38 72.9-26 74.3-26L74.3-26Q76.25-26 77.22-24.63 78.2-23.25 78.15-20.55L78.15-20.55 78.15-20.3Q79-23.15 80.7-24.6 82.4-26.05 84.8-26.05L84.8-26.05ZM105.84 0.65Q100.34 0.65 97.29-2.75 94.24-6.15 94.24-12.55L94.24-12.55Q94.24-18.85 97.37-22.45 100.49-26.05 106.19-26.05L106.19-26.05Q110.24-26.05 112.47-24.3 114.69-22.55 114.69-19.7L114.69-19.7Q114.69-17.95 113.77-16.9 112.84-15.85 111.39-15.85L111.39-15.85Q109.74-15.85 109.04-16.8L109.04-16.8Q110.69-17.45 110.69-20L110.69-20Q110.69-22.15 109.32-23.23 107.94-24.3 105.84-24.3L105.84-24.3Q102.49-24.3 100.49-21.4 98.49-18.5 98.49-13.15L98.49-13.15Q98.49-7.4 100.79-4.75 103.09-2.1 106.89-2.1L106.89-2.1Q109.64-2.1 111.64-3.45 113.64-4.8 114.24-7.35L114.24-7.35Q114.99-7.1 114.99-6.1L114.99-6.1Q114.99-5.45 114.74-4.75L114.74-4.75Q113.94-2.15 111.57-0.75 109.19 0.65 105.84 0.65L105.84 0.65ZM130.94 0.65Q125.54 0.65 122.52-2.88 119.49-6.4 119.49-12.7L119.49-12.7Q119.49-19 122.52-22.53 125.54-26.05 130.94-26.05L130.94-26.05Q136.39-26.05 139.42-22.53 142.44-19 142.44-12.7L142.44-12.7Q142.44-6.4 139.42-2.88 136.39 0.65 130.94 0.65L130.94 0.65ZM130.94-1.15Q134.44-1.15 136.29-4.13 138.14-7.1 138.14-12.7L138.14-12.7Q138.14-18.3 136.29-21.25 134.44-24.2 130.94-24.2L130.94-24.2Q127.44-24.2 125.59-21.25 123.74-18.3 123.74-12.7L123.74-12.7Q123.74-7.1 125.59-4.13 127.44-1.15 130.94-1.15L130.94-1.15ZM183.54-2.75Q184.09-1.1 184.74-0.4L184.74-0.4Q183.89 0.55 182.39 0.55L182.39 0.55Q181.44 0.55 180.74 0.13 180.04-0.3 179.84-1.1L179.84-1.1 176.79-11 163.69-11 161.19-2.65Q160.89-1.55 160.89-1L160.89-1Q160.89-0.2 161.19 0.15L161.19 0.15Q160.14 0.55 158.99 0.55L158.99 0.55Q156.69 0.55 156.69-1.3L156.69-1.3Q156.69-1.95 157.19-3.55L157.19-3.55 167.78-34.65Q169.44-35.3 171.09-35.3L171.09-35.3Q173.03-35.3 173.49-33.8L173.49-33.8 183.54-2.75ZM164.44-13.4L176.09-13.4 170.19-32.6 164.44-13.4ZM211.63-3.35Q212.23-2.55 212.23-1.8L212.23-1.8Q212.23-0.75 211.43-0.13 210.63 0.5 209.23 0.5L209.23 0.5Q205.33 0.5 205.33-4.6L205.33-4.6 205.33-5.6Q204.28-2.65 202.08-1 199.88 0.65 196.93 0.65L196.93 0.65Q192.83 0.65 190.98-1.75 189.13-4.15 189.08-9.85L189.08-9.85 189.08-19.75Q189.08-23.2 188.43-25.15L188.43-25.15Q189.53-26.05 190.78-26.05L190.78-26.05Q191.78-26.05 192.41-25.45 193.03-24.85 193.03-23.8L193.03-23.8 193.08-10.35Q193.08-7.1 193.56-5.2 194.03-3.3 195.11-2.43 196.18-1.55 198.08-1.55L198.08-1.55Q199.78-1.55 201.36-2.78 202.93-4 203.96-6.68 204.98-9.35 204.98-13.45L204.98-13.45Q204.98-19.9 204.88-21.85 204.78-23.8 204.28-25.15L204.28-25.15Q205.33-26.05 206.58-26.05L206.58-26.05Q207.58-26.05 208.23-25.4 208.88-24.75 208.88-23.65L208.88-23.65 208.93-5.15Q208.93-3.75 209.26-3.18 209.58-2.6 210.33-2.6L210.33-2.6Q211.23-2.6 211.63-3.35L211.63-3.35ZM228.28-26.05Q230.88-26.05 232.46-24.68 234.03-23.3 234.03-20.85L234.03-20.85Q234.03-19.2 233.08-18.13 232.13-17.05 230.83-17.05L230.83-17.05Q229.73-17.05 229.33-17.55L229.33-17.55Q229.88-18.4 230.08-19.13 230.28-19.85 230.28-20.75L230.28-20.75Q230.28-23.85 227.38-23.85L227.38-23.85Q225.13-23.85 223.61-20.98 222.08-18.1 222.08-12.05L222.08-12.05 222.08-9.35Q222.08-4.85 222.18-3.25 222.28-1.65 222.73-0.45L222.73-0.45Q221.68 0.45 220.38 0.45L220.38 0.45Q219.38 0.45 218.73-0.18 218.08-0.8 218.08-1.9L218.08-1.9 218.08-20.3Q218.08-21.7 217.76-22.3 217.43-22.9 216.68-22.9L216.68-22.9Q215.73-22.9 215.38-22.1L215.38-22.1Q214.78-22.95 214.78-23.7L214.78-23.7Q214.78-24.75 215.58-25.38 216.38-26 217.78-26L217.78-26Q219.73-26 220.71-24.63 221.68-23.25 221.63-20.55L221.63-20.55 221.63-20.3Q222.48-23.15 224.18-24.6 225.88-26.05 228.28-26.05L228.28-26.05ZM257.88-6.45Q258.63-6.2 258.63-5.3L258.63-5.3Q258.63-4.8 258.33-3.95L258.33-3.95Q257.38-1.75 255-0.55 252.63 0.65 249.43 0.65L249.43 0.65Q243.93 0.65 240.83-2.78 237.73-6.2 237.73-12.55L237.73-12.55Q237.73-18.85 240.8-22.45 243.88-26.05 249.63-26.05L249.63-26.05Q253.78-26.05 256.28-24.18 258.78-22.3 258.78-18.85L258.78-18.85Q258.78-15.15 255.78-13.2 252.78-11.25 247.43-11.25L247.43-11.25Q244.48-11.25 242.03-11.6L242.03-11.6Q242.33-6.55 244.55-4.33 246.78-2.1 250.38-2.1L250.38-2.1Q253.13-2.1 255.13-3.23 257.13-4.35 257.88-6.45L257.88-6.45ZM249.48-24.25Q246.08-24.25 244.05-21.43 242.03-18.6 241.98-13.3L241.98-13.3Q244.38-13.1 245.88-13.05L245.88-13.05Q249.88-13.05 252.2-14.48 254.53-15.9 254.53-19.35L254.53-19.35Q254.53-22 253.08-23.13 251.63-24.25 249.48-24.25L249.48-24.25ZM255.98-35.05L249.28-28.15Q248.78-28.15 248.2-28.25 247.63-28.35 247.48-28.5L247.48-28.5 252.03-36Q252.93-36.05 254.23-35.73 255.53-35.4 255.98-35.05L255.98-35.05ZM269.83 0.5Q267.58 0.5 266.33-0.95 265.08-2.4 265.08-5.05L265.08-5.05 265.08-34.3Q265.08-35.35 265.73-35.93 266.38-36.5 267.43-36.5L267.43-36.5Q268.68-36.5 269.73-35.6L269.73-35.6Q269.33-34.3 269.2-32.25 269.08-30.2 269.08-25.85L269.08-25.85 269.08-5.25Q269.08-3.95 269.55-3.28 270.03-2.6 270.98-2.6L270.98-2.6Q271.53-2.6 272.05-2.88 272.58-3.15 272.83-3.65L272.83-3.65Q273.38-2.9 273.38-2.1L273.38-2.1Q273.38-0.95 272.35-0.23 271.33 0.5 269.83 0.5L269.83 0.5ZM280.92-30Q279.82-30 279.02-30.8 278.22-31.6 278.22-32.7L278.22-32.7Q278.22-33.85 279.02-34.63 279.82-35.4 280.92-35.4L280.92-35.4Q282.07-35.4 282.85-34.63 283.62-33.85 283.62-32.7L283.62-32.7Q283.62-31.6 282.85-30.8 282.07-30 280.92-30L280.92-30ZM283.12-5.7Q283.12-2.05 283.77-0.35L283.77-0.35Q282.72 0.55 281.47 0.55L281.47 0.55Q280.47 0.55 279.85-0.05 279.22-0.65 279.22-1.65L279.22-1.65 279.17-19.8Q279.17-23.25 278.52-25.15L278.52-25.15Q279.57-26.05 280.82-26.05L280.82-26.05Q281.82-26.05 282.45-25.48 283.07-24.9 283.07-23.85L283.07-23.85 283.12-5.7ZM301.22 0.65Q295.82 0.65 292.8-2.88 289.77-6.4 289.77-12.7L289.77-12.7Q289.77-19 292.8-22.53 295.82-26.05 301.22-26.05L301.22-26.05Q306.67-26.05 309.7-22.53 312.72-19 312.72-12.7L312.72-12.7Q312.72-6.4 309.7-2.88 306.67 0.65 301.22 0.65L301.22 0.65ZM301.22-1.15Q304.72-1.15 306.57-4.13 308.42-7.1 308.42-12.7L308.42-12.7Q308.42-18.3 306.57-21.25 304.72-24.2 301.22-24.2L301.22-24.2Q297.72-24.2 295.87-21.25 294.02-18.3 294.02-12.7L294.02-12.7Q294.02-7.1 295.87-4.13 297.72-1.15 301.22-1.15L301.22-1.15Z" opacity="1" transform="matrix(1,0,0,1,0,0)" fill="#000000" class="wordmark-text-0" data-fill-palette-color="primary" id="text-0"></path></svg></g></svg></g></svg></g></svg></g><g transform="matrix(1,0,0,1,90.84670101938735,0)"><svg viewBox="0 0 63.960114761225235 40.705234457242945" height="40.705234457242945" width="63.960114761225235"><g><svg xmlns="http://www.w3.org/2000/svg" xmlns:xlink="http://www.w3.org/1999/xlink" version="1.1" x="8" y="0" viewBox="0.1646825396825397 4 49.83630952380953 42.29761904761906" enable-background="new 0 0 50.4 50.4" xml:space="preserve" id="icon-0" width="47.960114761225235" height="40.705234457242945" class="icon-icon-0" data-fill-palette-color="accent"><g fill="#12f6d6" data-fill-palette-color="accent"><rect x="0.166" y="31.438" width="3.515" height="3.518" fill="#000000" data-fill-palette-color="accent"></rect><rect x="5.93" y="31.438" width="3.515" height="3.518" fill="#000000" data-fill-palette-color="accent"></rect><rect x="11.834" y="31.438" width="3.516" height="3.518" fill="#000000" data-fill-palette-color="accent"></rect><rect x="17.599" y="31.438" width="3.514" height="3.518" fill="#000000" data-fill-palette-color="accent"></rect><rect x="23.502" y="31.438" width="3.515" height="3.518" fill="#000000" data-fill-palette-color="accent"></rect><rect x="29.267" y="31.438" width="3.515" height="3.518" fill="#000000" data-fill-palette-color="accent"></rect><rect x="35.17" y="31.438" width="3.517" height="3.518" fill="#000000" data-fill-palette-color="accent"></rect><rect x="40.937" y="31.438" width="3.515" height="3.518" fill="#000000" data-fill-palette-color="accent"></rect><rect x="0.166" y="37.269" width="3.515" height="3.514" fill="#000000" data-fill-palette-color="accent"></rect><rect x="5.93" y="37.269" width="3.515" height="3.514" fill="#000000" data-fill-palette-color="accent"></rect><rect x="11.834" y="37.269" width="3.516" height="3.514" fill="#000000" data-fill-palette-color="accent"></rect><rect x="17.599" y="37.269" width="3.514" height="3.514" fill="#000000" data-fill-palette-color="accent"></rect><rect x="23.502" y="37.269" width="3.515" height="3.514" fill="#000000" data-fill-palette-color="accent"></rect><rect x="29.267" y="37.269" width="3.515" height="3.514" fill="#000000" data-fill-palette-color="accent"></rect><rect x="35.17" y="37.269" width="3.517" height="3.514" fill="#000000" data-fill-palette-color="accent"></rect><rect x="40.937" y="37.269" width="3.515" height="3.514" fill="#000000" data-fill-palette-color="accent"></rect><rect x="0.166" y="43.154" width="3.515" height="3.514" fill="#000000" data-fill-palette-color="accent"></rect><rect x="5.93" y="43.154" width="3.515" height="3.514" fill="#000000" data-fill-palette-color="accent"></rect><rect x="11.834" y="43.154" width="26.853" height="3.514" fill="#000000" data-fill-palette-color="accent"></rect><rect x="40.937" y="43.154" width="3.515" height="3.514" fill="#000000" data-fill-palette-color="accent"></rect><rect x="46.887" y="31.438" width="3.514" height="3.518" fill="#000000" data-fill-palette-color="accent"></rect><rect x="46.887" y="37.269" width="3.514" height="3.514" fill="#000000" data-fill-palette-color="accent"></rect><rect x="46.887" y="43.154" width="3.514" height="3.514" fill="#000000" data-fill-palette-color="accent"></rect><rect x="6" y="4.032" width="38.521" height="24.06" fill="#000000" data-fill-palette-color="accent"></rect></g></svg></g></svg></g><g><rect width="43.54923285938736" height="2.656179487088371" y="37.04905497015457" x="154.8068157806126" fill="#000000" data-fill-palette-color="secondary"></rect><rect width="43.54923285938736" height="2.656179487088371" y="37.04905497015457" x="47.297468159999994" fill="#000000" data-fill-palette-color="secondary"></rect></g></svg></g></svg></g><g><path d="M86.269 73.536A122.216 122.216 0 0 1 309.251 73.536L306.608 73.536A119.573 119.573 0 0 0 88.912 73.536L86.269 73.536M86.269 173.664A122.216 122.216 0 0 0 309.251 173.664L306.608 173.664A119.573 119.573 0 0 1 88.912 173.664L86.269 173.664" fill="#000000" stroke="transparent" data-fill-palette-color="tertiary"></path></g></svg></g><defs></defs></svg><rect width="395.52" height="247.2" fill="none" stroke="none" visibility="hidden"></rect></g></svg></g></svg>